<svg xmlns="http://www.w3.org/2000/svg" viewBox="0 0 20 21.819">
  <path d="M20.97,14.237l-6.06-3.328,6.06-3.328a1.023,1.023,0,0,0,.393-1.408l-.83-1.438a1.023,1.023,0,0,0-1.416-.363L13.2,7.957l.148-6.912A1.023,1.023,0,0,0,12.33,0H10.67A1.023,1.023,0,0,0,9.648,1.045L9.8,7.957,3.884,4.373a1.023,1.023,0,0,0-1.416.363l-.83,1.438a1.023,1.023,0,0,0,.393,1.408l6.06,3.328-6.06,3.328a1.023,1.023,0,0,0-.393,1.408l.83,1.438a1.023,1.023,0,0,0,1.416.363L9.8,13.862l-.148,6.912a1.023,1.023,0,0,0,1.023,1.045h1.66a1.023,1.023,0,0,0,1.023-1.045L13.2,13.862l5.912,3.584a1.023,1.023,0,0,0,1.416-.363l.83-1.438a1.023,1.023,0,0,0-.393-1.408Z" transform="translate(-1.5)" />
</svg>